<svg xmlns="http://www.w3.org/2000/svg" xml:space="preserve" width="800" height="800" fill="#e60505" stroke="#e60505" viewBox="0 0 484.2 484.2"><path d="M152 119c0-8-6-13-16-13l-8 1v26h7c10 0 17-5 17-14z"/><path d="M362 1H169c-29 0-52 23-52 51v6H21C9 58 0 67 0 79v113c0 11 9 20 21 20h96v220c0 28 23 51 52 51h264c28 0 51-23 51-51V122L362 1zM92 147c0 25-12 33-31 33-4 0-10 0-14-2l2-16 10 2c8 0 14-4 14-17V92h19v55zm17 32V93l26-2c12 0 21 3 27 7 5 5 9 12 9 20 0 9-3 16-8 21-7 6-17 9-28 9h-7v31h-19zm324 273H169c-11 0-20-9-20-20V212h148c11 0 20-9 20-20V79c0-12-9-21-20-21H149v-6c0-11 9-20 20-20h182v68c0 19 15 35 35 35h66l1 297c0 11-9 20-20 20zM228 164l9-1v-19h-13v-15h32v46c-6 2-17 5-29 5-16 0-27-4-35-12-8-7-12-19-12-32 0-29 21-45 49-45 12 0 20 2 24 4l-4 16c-4-2-10-4-20-4-16 0-29 10-29 28s12 29 28 29z"/><path d="M385 253H216c-8 0-14 6-14 14v129c0 8 6 14 14 14h169c8 0 15-6 15-14V267c0-8-7-14-15-14zm-13 133c-1 2-4 4-7 4h-57a8 8 0 0 1-6-12l26-44c2-2 4-4 7-4 2 0 5 1 6 3l31 45v8zm-13-120a25 25 0 1 1 0 50 25 25 0 0 1 0-50zM233 390a8 8 0 0 1-7-12l41-67a8 8 0 0 1 12 0l26 37-15 23c-3 6-3 13-1 19h-56z"/></svg>